<svg width="25" height="24" viewBox="0 0 25 24" fill="none" xmlns="http://www.w3.org/2000/svg">
<path d="M13.5 5H10.7C7.70021 5 6.20032 5 5.14886 5.76393C4.80928 6.01065 4.51065 6.30928 4.26393 6.64886C3.5 7.70032 3.5 9.20021 3.5 12.2L3.5 13.8C3.5 16.7998 3.5 18.2997 4.26393 19.3511C4.51065 19.6907 4.80928 19.9893 5.14886 20.2361C6.20032 21 7.70021 21 10.7 21H12.3C15.2998 21 16.7997 21 17.8511 20.2361C18.1907 19.9893 18.4893 19.6907 18.7361 19.3511C19.5 18.2997 19.5 16.7998 19.5 13.8V11M10.1228 14.3772L21.5 3M21.5 3L17.2335 3M21.5 3V7.26646" stroke="#EEEDE7" stroke-width="1.5" stroke-linecap="round" stroke-linejoin="round"/>
</svg>
