<svg width="255" height="241" viewBox="0 0 255 241" fill="none" xmlns="http://www.w3.org/2000/svg">
<g opacity="0.15" clip-path="url(#clip0_1234_232)">
<mask id="mask0_1234_232" style="mask-type:luminance" maskUnits="userSpaceOnUse" x="0" y="0" width="254" height="240">
<path d="M253.685 122.925L84.6328 0L-0.000295581 116.785L169.052 239.711L253.685 122.925Z" fill="white"/>
</mask>
<g mask="url(#mask0_1234_232)">
<path d="M58.6338 35.9199C61.5544 31.509 65.6294 28.1649 70.1868 25.9475C78.5106 21.8957 89.6335 22.0856 97.1514 30.7094C101.536 35.7404 105.725 40.9888 108.132 47.4241C109.299 50.5451 110.94 53.5039 112.544 56.44C116.545 63.7545 118.914 71.7355 121.085 79.6529C123.023 86.726 125.276 93.7693 126.616 100.978C127.506 105.758 127.348 110.751 127.459 115.653C127.512 117.992 126.188 119.222 123.793 119.728C123.575 119.772 123.353 119.824 123.133 119.829C113.986 119.981 105.871 124.034 97.3608 126.618C92.6774 128.041 87.948 129.34 83.1805 130.45C80.0499 131.18 78.1189 129.961 76.9292 126.862C74.3699 120.194 71.954 113.472 69.3587 106.82C67.3336 101.631 65.2868 96.4956 63.8366 91.0673C62.7617 87.0481 60.41 83.3312 58.3652 79.6243C56.9284 77.0201 56.0763 74.4041 55.8303 71.4143C55.4068 66.2989 54.9593 61.1345 53.8647 56.136C52.1961 48.5035 54.4758 42.0429 58.6338 35.9199ZM84.3342 121.125C88.1028 121.764 90.9526 121.291 93.7032 120.295C99.9962 118.014 106.267 115.673 112.518 113.281C113.537 112.893 114.362 112.028 115.355 111.54C119.198 109.653 120.232 106.342 119.486 102.534C118.204 95.9728 117.127 89.2917 115.004 82.9857C110.882 70.7406 107.248 58.2176 99.7082 47.4173C99.1999 46.6875 98.7156 45.8914 98.4508 45.0521C96.621 39.2706 92.0889 36.0521 87.2864 33.067C84.03 31.0417 80.6014 30.9017 76.9688 31.8719C73.352 32.8397 70.8533 35.3722 68.0492 37.5987C62.606 41.9201 60.5362 47.6768 61.1634 54.2164C62.0153 63.1011 63.2457 71.8973 67.2539 80.1893C71.3306 88.6184 75.3753 97.101 78.3277 106.055C79.9966 111.129 82.2636 115.994 84.3342 121.125Z" fill="#8F7D6A"/>
<path d="M136.725 123.395C144.52 118.959 152.673 115.15 161.716 112.856C169.1 110.983 176.503 109.762 183.986 108.673C195.51 106.994 207.131 106.164 218.721 106.515C226.732 106.757 234.649 108.93 241.283 113.911C244.714 116.486 247.194 120.006 248.454 124.215C249.439 127.509 248.479 130.49 246.352 132.973C240.5 139.815 234.136 146.173 225.568 149.478C220.804 151.315 215.744 152.428 210.764 153.65C200.574 156.148 190.39 158.689 180.124 160.844C172.504 162.441 165.012 164.683 157.151 165.235C153.487 165.494 151.007 164.352 149.279 161.437C146.998 157.598 144.83 153.682 142.843 149.681C140.756 145.479 139.036 141.092 136.985 136.87C134 130.721 133.934 130.753 136.725 123.395ZM235.888 131.613C239.455 126.532 238.686 121.451 234.478 118.427C233.221 117.524 231.821 116.768 230.392 116.183C225.372 114.131 220.187 113.158 214.709 113.506C203.804 114.199 192.915 114.906 182.081 116.462C172.999 117.767 164.136 119.919 155.374 122.527C152.409 123.409 149.526 124.757 146.819 126.271C143.859 127.928 143.37 129.894 144.707 133.055C145.833 135.717 147.4 138.219 148.27 140.954C149.8 145.747 152.565 149.738 155.536 153.67C157.346 156.067 159.526 156.789 162.531 156.369C170.278 155.292 177.855 153.511 185.408 151.553C193.82 149.37 202.203 147.033 210.705 145.261C217.39 143.866 223.512 141.392 229.055 137.545C231.776 135.654 234.103 133.185 235.888 131.613Z" fill="#8F7D6A"/>
<path d="M99.132 176.759C100.978 178.052 101.524 180.744 100.35 182.764C99.0409 185.018 94.6517 185.785 92.6053 184.118C90.8162 182.66 90.5471 179.996 91.9977 178.086C93.7667 175.761 96.8788 175.181 99.132 176.759Z" fill="#8F7D6A"/>
<path d="M86.0773 148.077C88.0733 149.475 88.555 151.899 87.2552 153.982C85.7889 156.328 82.5258 156.861 80.2098 155.128C78.7002 154.002 78.6898 151.221 80.183 149.007C81.4996 147.055 84.047 146.652 86.0773 148.077Z" fill="#8F7D6A"/>
<path d="M122.195 173.297C119.718 171.535 119.003 169.323 119.98 167.718C121.074 165.92 123.06 165.18 125.191 165.824C125.824 166.014 126.454 166.287 127.014 166.637C128.428 167.523 129.304 168.73 129.058 170.519C128.811 172.329 127.401 173.794 125.436 173.84C124.168 173.869 122.888 173.424 122.195 173.297Z" fill="#8F7D6A"/>
<path d="M105.944 160.706C107.714 161.998 107.924 164.709 106.406 166.65C104.951 168.509 102.493 168.826 100.478 167.421C98.4487 166.004 97.9387 163.364 99.3561 161.615C100.908 159.696 103.974 159.272 105.944 160.706Z" fill="#8F7D6A"/>
<path d="M121.87 147.56C123.892 145.131 126.941 144.639 128.747 146.449C130.193 147.899 130.01 150.657 128.348 152.425C126.508 154.38 123.885 154.536 121.869 152.807C120.27 151.435 120.27 149.484 121.87 147.56Z" fill="#8F7D6A"/>
<path d="M124.41 136.837C123.098 138.729 120.665 138.974 118.592 137.421C116.682 135.99 116.078 133.712 117.23 132.281C119.031 130.041 122.327 129.372 124.283 130.846C125.861 132.036 125.918 134.665 124.41 136.837Z" fill="#8F7D6A"/>
<path d="M104.939 145.089C103.646 146.841 100.756 147.244 98.9572 145.925C97.4507 144.819 96.9413 141.928 97.9993 140.501C99.1732 138.925 102.407 138.21 104.062 139.165C105.866 140.208 106.313 143.232 104.939 145.089Z" fill="#8F7D6A"/>
<path d="M117.23 190.339C116.068 192.012 113.599 192.657 112.022 191.706C110.13 190.564 109.556 187.685 110.88 185.959C112.259 184.161 114.794 183.782 116.751 185.075C118.308 186.106 118.524 188.483 117.23 190.339Z" fill="#8F7D6A"/>
</g>
</g>
<defs>
<clipPath id="clip0_1234_232">
<rect width="255" height="241" fill="white"/>
</clipPath>
</defs>
</svg>
