<svg width="40" height="32" viewBox="0 0 40 32" fill="none" xmlns="http://www.w3.org/2000/svg">
<path d="M1.25 1.41699H17.4417C18.9416 1.41699 19.6915 1.41699 20.2172 1.79896C20.387 1.92232 20.5363 2.07163 20.6597 2.24142C21.0417 2.76715 21.0417 3.5171 21.0417 5.01699V11.8337V9.18366C21.0417 7.68377 21.0417 6.93382 21.4236 6.40809C21.547 6.2383 21.6963 6.08898 21.8661 5.96562C22.3918 5.58366 23.1418 5.58366 24.6417 5.58366H31.3167C32.2761 5.58366 32.7558 5.58366 33.1626 5.7766C33.2962 5.83992 33.4222 5.91785 33.5386 6.00895C33.8931 6.28652 34.1076 6.71558 34.5367 7.57369L38.3699 15.2402C38.538 15.5763 38.622 15.7444 38.6731 15.9232C38.6901 15.9827 38.7043 16.0429 38.7157 16.1037C38.75 16.2865 38.75 16.4744 38.75 16.8502V22.817C38.75 24.3169 38.75 25.0668 38.368 25.5926C38.2447 25.7624 38.0954 25.9117 37.9256 26.035C37.3998 26.417 36.6499 26.417 35.15 26.417H34.5833M1.25 26.417H5.41667M13.75 26.417C13.75 28.7182 11.8845 30.5837 9.58333 30.5837C7.28215 30.5837 5.41667 28.7182 5.41667 26.417M13.75 26.417C13.75 24.1158 11.8845 22.2503 9.58333 22.2503C7.28215 22.2503 5.41667 24.1158 5.41667 26.417M13.75 26.417H26.25M34.5833 26.417C34.5833 28.7182 32.7179 30.5837 30.4167 30.5837C28.1155 30.5837 26.25 28.7182 26.25 26.417M34.5833 26.417C34.5833 24.1158 32.7179 22.2503 30.4167 22.2503C28.1155 22.2503 26.25 24.1158 26.25 26.417M1.25 8.70866H15.8333M1.25 16.0003H11.6667M26.25 10.792H30.4167L33.0208 16.0003H26.25V10.792Z" stroke="#503217" stroke-width="2.5" stroke-linecap="round" stroke-linejoin="round"/>
</svg>
